<?xml version="1.0" encoding="UTF-8"?>
<!DOCTYPE svg PUBLIC "-//W3C//DTD SVG 1.1//EN" "http://www.w3.org/Graphics/SVG/1.1/DTD/svg11.dtd">
<svg xmlns="http://www.w3.org/2000/svg" version="1.1" width="24px" height="24px" style="shape-rendering:geometricPrecision; text-rendering:geometricPrecision; image-rendering:optimizeQuality; fill-rule:evenodd; clip-rule:evenodd" xmlns:xlink="http://www.w3.org/1999/xlink">
<g><path style="opacity:1" fill="#000000" d="M 2.5,-0.5 C 7.16667,-0.5 11.8333,-0.5 16.5,-0.5C 18.168,1.34004 19.668,3.34004 21,5.5C 21.746,11.5508 21.5793,17.5508 20.5,23.5C 14.5,23.5 8.5,23.5 2.5,23.5C 1.16667,15.5 1.16667,7.5 2.5,-0.5 Z M 4.5,1.5 C 7.16667,1.5 9.83333,1.5 12.5,1.5C 12.5,3.16667 12.5,4.83333 12.5,6.5C 14.5,6.5 16.5,6.5 18.5,6.5C 18.5,11.5 18.5,16.5 18.5,21.5C 13.8333,21.5 9.16667,21.5 4.5,21.5C 4.5,14.8333 4.5,8.16667 4.5,1.5 Z"/></g>
<g><path style="opacity:1" fill="#000000" d="M 5.5,8.5 C 9.55461,8.17575 13.5546,8.50909 17.5,9.5C 15.5,9.83333 13.5,10.1667 11.5,10.5C 9.04775,10.4609 7.04775,9.79426 5.5,8.5 Z"/></g>
<g><path style="opacity:1" fill="#000000" d="M 5.5,12.5 C 9.55461,12.1758 13.5546,12.5091 17.5,13.5C 15.5,13.8333 13.5,14.1667 11.5,14.5C 9.04775,14.4609 7.04775,13.7943 5.5,12.5 Z"/></g>
<g><path style="opacity:1" fill="#000000" d="M 5.5,15.5 C 7.16667,15.5 8.83333,15.5 10.5,15.5C 10.5,16.5 10.5,17.5 10.5,18.5C 8.83333,18.5 7.16667,18.5 5.5,18.5C 5.5,17.5 5.5,16.5 5.5,15.5 Z"/></g>
</svg>
