<?xml version="1.0" encoding="UTF-8"?>
<!DOCTYPE svg PUBLIC "-//W3C//DTD SVG 1.1//EN" "http://www.w3.org/Graphics/SVG/1.1/DTD/svg11.dtd">
<svg xmlns="http://www.w3.org/2000/svg" version="1.1" width="24px" height="24px" style="shape-rendering:geometricPrecision; text-rendering:geometricPrecision; image-rendering:optimizeQuality; fill-rule:evenodd; clip-rule:evenodd" xmlns:xlink="http://www.w3.org/1999/xlink">
<g><path style="opacity:1" fill="#1765bb" d="M 10.5,-0.5 C 11.5,-0.5 12.5,-0.5 13.5,-0.5C 16.3373,1.40229 19.6707,2.06896 23.5,1.5C 23.5,8.16667 23.5,14.8333 23.5,21.5C 19.6707,20.931 16.3373,21.5977 13.5,23.5C 12.1667,23.5 10.8333,23.5 9.5,23.5C 6.37328,22.4192 3.03995,21.7526 -0.5,21.5C -0.5,15.1667 -0.5,8.83333 -0.5,2.5C 3.37269,1.86602 7.03935,0.866018 10.5,-0.5 Z M 13.5,4.5 C 16.2869,3.52333 19.2869,3.19 22.5,3.5C 22.5,8.83333 22.5,14.1667 22.5,19.5C 19.4816,19.6646 16.4816,19.498 13.5,19C 24.1667,18 24.1667,17 13.5,16C 24.1667,15 24.1667,14 13.5,13C 24.1667,12 24.1667,11 13.5,10C 24.1667,9 24.1667,8 13.5,7C 24.1466,5.84229 24.1466,5.00895 13.5,4.5 Z"/></g>
<g><path style="opacity:1" fill="#c0d1e9" d="M 1.5,8.5 C 2.96626,9.347 3.79959,10.6803 4,12.5C 5.33333,7.16667 6.66667,7.16667 8,12.5C 8.28961,10.9559 8.95627,9.62261 10,8.5C 9.97549,10.9199 9.30882,13.2533 8,15.5C 7.33333,14.1667 6.66667,12.8333 6,11.5C 5.33333,12.8333 4.66667,14.1667 4,15.5C 2.86381,13.257 2.03048,10.9237 1.5,8.5 Z"/></g>
</svg>
